<?xml version="1.0" encoding="utf-8"?>
<!-- Generator: Adobe Illustrator 15.1.0, SVG Export Plug-In . SVG Version: 6.00 Build 0)  -->
<!DOCTYPE svg PUBLIC "-//W3C//DTD SVG 1.1//EN" "http://www.w3.org/Graphics/SVG/1.1/DTD/svg11.dtd">
<svg version="1.1" id="Laag_1" xmlns="http://www.w3.org/2000/svg" xmlns:xlink="http://www.w3.org/1999/xlink" x="0px" y="0px"
	 width="340px" height="95px" viewBox="0 0 340 95" enable-background="new 0 0 340 95" xml:space="preserve">
<g>
	<path fill="#8477B4" d="M7.664,68.702c15.96,0,8.502-23.866,26.252-23.866c4.624,0,7.309,1.79,7.309,6.414v17.452
		C9.555,80.924,1.967,85.967,0.609,93.521h14.074c0.188-9.183,5.326-13.777,26.542-21.24v21.24h13.425V56.619
		c0-10.59-6.712-15.363-17.303-15.363c-13.872,0-34.605,12.082-34.605,21.181C2.741,66.018,4.829,68.702,7.664,68.702z"/>
	<path fill="#8477B4" d="M116.715,30.345c5.519,0,8.204-3.281,8.204-8.204s-2.685-8.204-8.204-8.204s-8.204,3.282-8.204,8.204
		S111.196,30.345,116.715,30.345z"/>
	<path fill="#8477B4" d="M74.311,18.562V93.5h13.425V1.258c-20.734,7.906-25.358,5.37-25.358,8.055
		C62.377,12.744,74.311,8.567,74.311,18.562z"/>
	<path fill="#8477B4" d="M111.497,58.51v34.963h13.424V41.207c-20.733,7.906-24.463,5.37-24.463,8.055
		C100.458,52.692,111.497,48.516,111.497,58.51z"/>
	<path fill="#8477B4" d="M162.722,93.468c-4.623-5.219-6.572-12.675-6.732-20.644h49.523c0-15.662-9.547-31.623-28.938-31.623
		c-20.436,0-34.01,17.9-34.01,36.097c0,5.985,1.406,11.449,3.846,16.169H162.722z M176.427,43.887
		c9.993,0,15.662,7.01,15.662,25.357h-36.397C155.99,55.074,165.686,43.887,176.427,43.887z"/>
	<path fill="#8477B4" d="M219.901,58.551v34.963h13.425V59.147c7.159-6.563,12.977-10.144,21.479-10.144
		c7.607,0,10.143,3.58,10.143,9.846v34.664h13.425V56.611c0-8.8-4.773-15.363-16.855-15.363c-11.188,0-21.032,8.354-28.191,13.723
		V41.248c-20.436,7.906-24.463,5.37-24.463,8.055C208.863,52.733,219.901,48.557,219.901,58.551z"/>
	<path fill="#8477B4" d="M327.675,93.465h11.547c0.109-0.852,0.17-1.717,0.17-2.596c0-20.733-38.782-21.181-38.782-36.098
		c0-7.458,4.772-10.888,10.89-10.888c11.634,0,16.706,9.099,20.136,18.646c0.896,2.535,0.896,3.877,2.089,3.877
		c0.745,0,1.193-0.447,1.193-1.641V45.673c-5.072-2.387-14.618-4.475-21.479-4.475c-15.513,0-24.164,9.248-24.164,19.242
		C289.273,81.379,323.688,80.872,327.675,93.465z"/>
</g>
</svg>
